<svg xmlns="http://www.w3.org/2000/svg" viewBox="0 0 276.95 133.5"><defs><style>.cls-1{fill:#fff;}</style></defs><title>Recurso 1</title><g id="Capa_2" data-name="Capa 2"><g id="Capa_1-2" data-name="Capa 1"><path class="cls-1" d="M11.35,43.61C10,39,7.89,37,3.88,36.69H0V27.41H35.72v9.28H33.5c-3.87,0-5.39,1-5.39,3.46A18.26,18.26,0,0,0,29.35,46L39.6,76,50.67,44.72a13.15,13.15,0,0,0,.83-4.57c0-2.35-1.94-3.46-6.09-3.46H42.09V27.41h32v9.28H70.61c-4.15.41-6.23,2.63-8.31,8.31L45.69,92.34H28.11Z"/><path class="cls-1" d="M74.11,83.07h4.44c6.92-.28,7.89-1.25,7.89-8.17v-30c0-6.93-1-7.89-7.89-8.17H74.11V27.41h28.94V38.77c8.58-10.11,14.54-13.43,23.4-13.43,6,0,12,2.21,15.5,5.67s4.71,8.45,4.71,18.28V74.9c0,6.92,1,7.89,7.89,8.17h3.88v9.27h-39V83.07h2.77c6.92-.28,7.89-1.25,7.89-8.17V49.29c0-5.68-.42-7.62-1.94-9.69A10.62,10.62,0,0,0,119.8,36a16,16,0,0,0-12.73,6.78c-3,4-4,7.62-4,15.37V74.9c0,6.92,1,7.89,7.89,8.17h2.77v9.27H74.11Z"/><path class="cls-1" d="M170.89,45c-2.91-6.23-5-8-10.1-8.31h-4.16V27.41h39.74v9.28h-4.71c-3.19,0-5,1.11-4.85,3a7.45,7.45,0,0,0,.83,3.33L200.38,73,211.73,44.3a13.37,13.37,0,0,0,1-4.15c0-2.49-1.8-3.46-6.09-3.46h-3.74V27.41H236.1v9.28h-3C228.35,37,226.27,39,223,46.52L207.44,84.59c-11.9,29.63-23.9,48.91-37.33,48.91-11.08,0-19.25-7.34-19.25-17.31,0-7.33,4.71-12.32,11.36-12.32,5.53,0,9.55,3.88,9.55,9.14s-3.32,8.17-10.11,8.17c2.63,2.63,4,3.32,6.93,3.32,7.47,0,17-16.23,23.48-32.16Z"/><path class="cls-1" d="M264.76,74.9c0,6.92,1,7.89,7.89,8.17H277v9.27H235.83V83.07H240c7.06-.28,8-1.25,8-8.17V17.44c0-6.92-1-7.89-8-8.16h-4.15V0h28.93Z"/></g></g></svg>