<?xml version="1.0" encoding="utf-8"?>
<!-- Generator: Adobe Illustrator 23.0.0, SVG Export Plug-In . SVG Version: 6.00 Build 0)  -->
<svg version="1.1" id="Capa_1" xmlns="http://www.w3.org/2000/svg" xmlns:xlink="http://www.w3.org/1999/xlink" x="0px" y="0px"
	 viewBox="0 0 277 133.5" style="enable-background:new 0 0 277 133.5;" xml:space="preserve">
<style type="text/css">
	.st0{fill:#FF0090;}
</style>
<title>Recurso 1</title>
<g>
	<g id="Capa_1-2">
		<path class="st0" d="M158.4,83.1v9.3h-39v-9.3h2.8c6.9-0.3,7.9-1.3,7.9-8.2V49.3c0-5.7-0.4-7.6-1.9-9.7c-2.1-2.4-5.2-3.7-8.4-3.6
			c-5.1,0.1-9.8,2.6-12.7,6.8c-3,4-4,7.6-4,15.4V75c0,6.9,1,7.9,7.9,8.2h2.8v9.3H74.1v-9.3h4.4c6.9-0.3,7.9-1.3,7.9-8.2
			c0,0,0-29.9,0-30c0-1.8,0.2-3.9-0.6-5.5c-1.4-2.9-5.4-3.2-8.2-3.2c-3.3,0-7.5,0-10.2,2.1c-2.1,1.6-3.2,4.3-4.1,6.7L46.7,92.3H29.1
			L12.3,43.6C11,39,8.9,37,4.9,36.7H1v-9.3h35.7v9.3h-2.2c-3.9,0-5.4,1-5.4,3.5c0.1,2,0.5,4,1.2,5.8l10.3,30l11.1-31.3
			c0.5-1.5,0.8-3,0.8-4.6c0-2.4-1.9-3.5-6.1-3.5h-3.3v-9.3h60v11.4c8.6-10.1,14.5-13.4,23.4-13.4c6,0,12,2.2,15.5,5.7
			s4.7,8.5,4.7,18.3v25.6c0,6.9,1,7.9,7.9,8.2H158.4z"/>
		<path class="st0" d="M170.9,45c-2.9-6.2-5-8-10.1-8.3h-4.2v-9.3h39.7v9.3h-4.7c-3.2,0-5,1.1-4.9,3c0,1.2,0.3,2.3,0.8,3.3l12.7,30
			l11.3-28.7c0.6-1.3,0.9-2.7,1-4.2c0-2.5-1.8-3.5-6.1-3.5h-3.7v-9.3h33.2v9.3h-3c-4.8,0.3-6.8,2.3-10.1,9.8l-15.6,38.1
			c-11.9,29.6-23.9,48.9-37.3,48.9c-11.1,0-19.3-7.3-19.3-17.3c0-7.3,4.7-12.3,11.4-12.3c5.5,0,9.6,3.9,9.6,9.1s-3.3,8.2-10.1,8.2
			c2.6,2.6,4,3.3,6.9,3.3c7.5,0,17-16.2,23.5-32.2L170.9,45z"/>
		<path class="st0" d="M264.8,74.9c0,6.9,1,7.9,7.9,8.2h4.3v9.3h-41.2v-9.3h4.2c7.1-0.3,8-1.3,8-8.2V17.4c0-6.9-1-7.9-8-8.2h-4.1V0
			h28.9L264.8,74.9z"/>
	</g>
</g>
</svg>
