<?xml version="1.0" encoding="utf-8"?>
<!-- Generator: Adobe Illustrator 22.1.0, SVG Export Plug-In . SVG Version: 6.00 Build 0)  -->
<svg version="1.1" id="Capa_1" xmlns="http://www.w3.org/2000/svg" xmlns:xlink="http://www.w3.org/1999/xlink" x="0px" y="0px"
	 viewBox="0 0 1000 807.3" style="enable-background:new 0 0 1000 807.3;" xml:space="preserve">
<style type="text/css">
	.st0{fill:#E05915;}
	.st1{fill:#FF93AC;}
	.st2{fill:#FAE596;}
	.st3{fill:#6534FF;}
	.st4{fill:#00E9E6;}
	.st5{fill:#FFCD16;}
</style>
<title>Dots_1</title>
<g>
	<g id="Capa_2_1_">
		<g id="Capa_1-2">
			<path class="st0" d="M9.7,697.9c20,2.3,40,5.6,60.2,3.4c13.8-1.5,27.5-3.9,40.5-8.7c8.7-3.2,12.7-9.8,12.3-19.6
				c-0.7-16.8-0.7-33.6-0.8-50.3c0-4.9-1.1-9.8-3.2-14.2c-3-6.4-6.9-11.4-15.5-11.5c-8-0.2-15.9-2.3-24.1-2.7
				c-5.9-0.3-11-3.8-15.2-7.9c-13.9-13.3-31-14.8-48.8-13.7l-6.9,0.4C8.8,614.7,9.3,656.3,9.7,697.9z"/>
			<path class="st1" d="M851.5,4.1c-8.4,3.9-17.4,6.3-26.4,8.4c-28,6.3-52.5,18.6-70.6,41.5c-4.8,6-1.9,13.6-0.5,20.2
				c1.2,5.5,7.3,5.4,11.8,5.3c16.7-0.5,33.6,1.8,50.1-1.9c9.2-2.1,17.4-7.5,26.9-9c19.7-3.1,38.8-9.1,58.6-12.3
				c20.4-3.3,40.8-7.7,60.3-16c14.5-6.3,21.5-24,15.6-37.5L851.5,4.1z"/>
			<path class="st2" d="M3.3,137.2c9.4,4.3,19.4,6.6,29.7,6.6c10.8,0,14.6-3.2,16.9-13.7c0.9-4.1,1.2-8.3,2.3-12.4
				c2-7.1-1.6-10.3-7.6-12.6c-6-2.3-12.4-3.7-18.5-5.7c-4.8-1.6-10.1,4.1-14.4,7.5c-5.4,4.4-8.5,10.4-7.7,17.9
				c0.2,1.8-0.6,3.6-0.9,5.4L3.3,137.2z"/>
			<path class="st3" d="M8,543.7c11.6,5.2,23.5,8.5,36.4,5.8c3.5-0.7,6.4-2.4,7.8-5.3c3.7-7.9,4.5-16.5,5.5-25
				c0.3-2.5-2-4.4-4.1-5.2c-10-3.9-19.7-9.1-31.1-4.3c-8.6,3.6-11.1,11.3-14.6,18.5L8,543.7z"/>
			<path class="st3" d="M5.7,344.6c9.7,3.3,19.5,6.2,30,5.7c10.6-0.5,14.8-3.7,16.9-13.9c0.9-4.3,1.3-8.8,2.4-13.1
				c1.2-4.4-0.5-7.5-3.9-9.5c-7.3-4.4-15.9-5.6-23.9-6.6c-7.6-0.9-18.5,10.4-20.4,18.6c-0.4,1.6-0.8,3.2-1.1,4.7
				C5.6,335.3,5.6,340,5.7,344.6z"/>
			<path class="st3" d="M703.4,5.8c1.1,3.1,1.9,6.3,3.3,9.1c1.7,3.4,4.2,6.2,8.5,6.1c10.4-0.1,20.9,0.6,31-2.2
				c7.8-2.2,13.1-8.3,18.7-13.8L703.4,5.8z"/>
			<path class="st4" d="M480.7,443.4c2.4-15.9-4.9-33.6-8.5-51.8c-1.7-8.6-7.7-13-16-12.8c-20.2,0.6-40.4-2.9-60.5,1.9
				c-4.3,1-8.5,2-12.4,4.2c-4.7,2.7-6.5,6.4-6.8,11.9c-0.7,10.6,0.4,21.5-4.7,31.5c-3.5,6.9-9,12.3-13.4,18.7
				c-1.9,2.8-3.3,5.5-3.4,8.9c0,2.3,0.1,4.9-0.8,6.9c-5.6,12.1-2.2,24.1,0.8,35.7c2.9,11,13.2,15.7,22.9,19.8
				c19.7,8.4,38.7,3,57.8-2.8c9.4-2.9,16.8-8.8,24.7-14.1c2.5-1.7,4.7-4.1,7.4-5.2c8.8-3.3,10-9.6,11-18.4
				C480,467.3,480.6,457,480.7,443.4z"/>
			<path class="st4" d="M810.9,207.7c-12.2,0.7-24.6-1.6-36.6,2.8c-12.9,4.8-14,6.4-14.8,20.1c-1,16.9-4.3,32.8-17.6,45.4
				c-6,5.7-4.1,15.3-5.7,23.1c-0.8,3.6-0.2,7.4-0.1,11.2c0.4,8.6-0.3,18.3,6.2,24.5c9.7,9.2,21.5,15.6,35.3,16.5
				c25.8,1.6,47.9-8.2,68.8-22.4c9.4-6.4,14.7-12.6,16.1-25.2c1.6-15.2,2.9-30.4,1-45.2c-1.8-14.3-3.5-29.1-10.5-42.4
				c-3.5-6.7-8.6-9.8-15.7-9.1C828.6,207.9,819.8,207.5,810.9,207.7z"/>
			<path class="st1" d="M667.9,280.9c5.8-0.1,11.9,0.9,17.4-0.4c11.5-2.8,23.6-2.7,34.4-8.3c1.7-0.9,4.4-1.5,4-3.4
				c-1.3-6.5,3.2-12,3-18c-0.3-8.1,2.3-15.6,3.5-23.4c0.9-6,5.1-9.6,9.7-12.1c6.5-3.5,7.2-10.1,8-15.3c1.7-11.8,2.3-23.9,0-35.9
				c-1.6-8.5-7.8-12.9-13.9-16.5c-18.2-11-37.5-14-57.9-5.5c-4.4,1.8-9.4,1.8-13.6,4.6c-2.5,1.7-6.6,1.5-4.6,6.7
				c1,2.6-1.9,2.1-3.2,1.4c-4.5-2-7.4,0.1-10.5,3c-3.7,3.5-7.5,7-12.8,8.1c-4,0.8-5,4.3-5.3,7.4c-1.5,15.6-6.2,30.9-4.2,46.8
				c0.9,6.9,0.2,13.8,2.8,20.6c2.3,6.2,3.9,13.1,4.1,19.6c0.2,8.7,6.3,13,11.2,18.4c1.9,2.1,4.5,2.2,7.1,2.2
				C654,281,661,281,667.9,280.9L667.9,280.9z"/>
			<path class="st5" d="M544.4,170.1c-25.7,0.1-47.7,0.7-69.1,4.9c-27.1,5.3-54,12.3-78.3,26.2c-10.9,6.2-19.6,15.3-26.3,25.6
				c-7.6,11.6,0.2,24,13.8,23.9c13.3-0.1,26.5-0.4,39.8-0.5c5.7,0,11.3-1.1,16.2-3.6c12.6-6.5,26-8.7,39.9-10.8
				c11.5-1.7,22.8-5.8,34.5-7.9c19.4-3.3,38.7-7.8,57.6-13.5c14.5-4.4,24-17.4,23.7-32.4c-0.1-5.6-3.6-7.2-8.4-8.4
				C572.1,169.6,556.4,169.2,544.4,170.1z"/>
			<path class="st1" d="M554.5,489.7c26.6-2,53.7-0.2,79.7-6.8c19.8-5,39.7-10.2,58.9-18.5c15.7-6.8,26.3-18.4,37.5-29.9
				c3.4-3.5,3.9-15,1.3-20.7c-2.6-5.8-7.9-5.6-12.6-5.3c-14,1-27.9,0.5-41.9,0.9c-4.8,0.1-9.1,1.2-13.4,3.1
				c-12.4,5.4-25.2,9.6-38.8,10.4c-2.1,0.1-4.2,0.5-6.2,1.1c-19.5,6.5-40.1,7.5-59.9,12.4c-14.2,3.5-28.4,7.3-41.2,14.6
				c-8.2,4.7-14,21.8-10.7,30.6c1.3,3.3,4,5.4,7.5,5.3C528.1,487.1,541.1,491.6,554.5,489.7z"/>
			<path class="st0" d="M330.2,760.7c0.1-22.4,0.3-44.9-4.8-66.8c-5.6-24.2-11.4-48.3-22.8-70.9c-6.4-12.8-16.1-22.1-26.4-31
				c-5.5-4.8-13.1-2.9-19.4-1.1c-5.4,1.5-6.4,7.2-6.4,12.2c0,15.2,0.1,30.3,0.5,45.5c0.2,8.6,6.2,15.4,8.3,23.6
				c2,7.9,4.3,15.7,4.9,23.9c0.1,1.6,0.1,3.4,0.6,4.8c9.4,26.4,10.2,54.8,18,81.6c1.6,5.7,4.3,10.8,7,16c1.2,2.4,3.2,3.2,5.8,3.1
				c9.3-0.1,18.6-0.3,27.9-0.3c6,0.1,7-4.2,7.1-8.4C330.6,782.2,330.3,771.4,330.2,760.7z"/>
			<path class="st5" d="M498.9,573.3c30.2-2,61,2.1,91.9,6.4c11.1,1.6,20.9,6.8,30.1,12.3c8.2,4.9,16.5,9.8,25.3,13.2
				c9.1,3.5,19.3,2.5,28.8-0.3c4.9-1.5,3.6-6.3,0.5-8.2c-6.8-4-11.4-10.2-16.4-15.8c-13.2-14.9-29.3-25.7-46.5-35.1
				c-7.3-4-15-7.5-22-12C575,524,558,520.6,540,520.4c-27-0.3-53.9,0.9-80.4,6.7c-9.3,2-11.5,5.2-10.7,14.6
				c0.8,9.3,0.7,18.4,7.2,26.4c3,3.7,5.7,5.7,10.3,5.6C476.8,573.5,487.3,573.4,498.9,573.3z"/>
			<path class="st4" d="M605.8,86.3c-33.2,2.3-66-1.7-98.6-7.4c-10-1.7-19.5-6.8-28.6-12.4c-12.7-7.9-25.3-17-41.7-14.4
				c-2.9,0.5-6.5-0.2-7.9,3.2c-1.3,3.1-0.8,6.2,1.5,9.1c14.9,18.7,32,34.9,53.3,46.1c8.6,4.5,17.6,8.7,25.6,14.2
				c17.2,11.8,36.7,14.1,56.6,14.7c25.4,0.7,50.6-2.4,75.6-6.7c10.4-1.8,12.1-4.9,11.7-15.6c-0.4-9.5-1.4-18.5-7.6-26.4
				c-2.7-3.4-5.5-5.1-10-4.9C625.8,86.2,615.8,86.1,605.8,86.3z"/>
			<path class="st2" d="M392.8,87.8c-17.5,1.4-37.7,3.7-56.9,10.4c-12.8,4.5-24.3,11.6-30.1,25.3c-2.5,5.9-2.7,11.4,0.3,16.8
				c7.3,13.1,11.8,27.3,15.5,41.7c2.4,9.2,5.3,9.9,14.6,10.7c21.3,1.8,37.5-6.4,52.2-21.1c11.5-11.5,24.7-21.2,36.9-32.1
				c9-8,12.2-33.2,6-43.5c-1.9-3.2-4.3-5.1-8.1-5.9C414.1,88.1,404.9,87.8,392.8,87.8z"/>
			<path class="st5" d="M411.2,614.4c-0.4-11.2,1.2-22.6-1.9-33.5c-4.5-16.1-7.9-32.7-19.8-45.6c-1.6-1.7-3.2-3.4-5.1-4.8
				c-8.6-6.5-17.4-9.1-27.5-2.4c-10.8,7.2-23.6,9.5-35.8,13.2c-11,3.3-12.1,5.3-12.8,16.6c-1.1,18.4,5,32.9,17.2,46.9
				c10.7,12.2,22,23.9,31.8,36.8c11.6,15.3,28.6,16.2,43.4,12c6.1-1.7,10.6-6.7,10.6-14C411.4,631.2,411.3,622.8,411.2,614.4z"/>
			<path class="st4" d="M703.7,570.7c19.9,0,39.7-1.9,58.3-8.6c13.8-5,27.4-11.8,34-27c2.7-6.3,2.2-11.8-1.2-17.2
				c-7.2-11.4-10.5-24.2-13.8-37.1c-2.7-10.4-6.8-13.8-15.6-13.3c-7.9,0.4-15.8,1-23.6,1.9c-8.6,0.9-13.3,8.1-19.8,12.4
				c-7.6,4.9-14.3,11.1-20.7,17.6c-7.8,8-17.2,14.2-25.1,22.2c-10.6,10.8-11.6,35.4-1.6,44.6c4.8,4.4,10.8,3.9,16.4,4.6
				C695.3,571.3,699.5,570.8,703.7,570.7z"/>
			<path class="st4" d="M991.8,389.8c4.9-14.3-5.3-21.5-18.2-28.4c-14.6-7.8-29.7-11.7-46-12.1c-27.3-0.8-54.4,0.3-81.1,5.7
				c-3.6,0.7-7.5,0.8-10.5,3.4c-3.1,2.6-5.7,4.9-3.6,10c1.4,3.5,1,7.8,0.8,11.8c-0.3,7.6,3.5,13.3,7.9,18.9c2.3,2.8,5.3,3.5,8.8,3.4
				c10.5-0.5,20.9-1.2,31.4-1.5c27.5-0.7,54.8,1.3,81.9,6.3c8.1,1.5,16.8,0.2,24.4,4.9c3.2,1.9,4.6-0.2,4.6-3.5
				C992,403.2,991.9,397.8,991.8,389.8z"/>
			<path class="st0" d="M387.9,800.5c6.5-0.1,13-0.2,19.6-0.2c3.8,0,6.1-1.1,6.3-5.5c0.8-18.9,4-37.5,6-56.3
				c1.5-14.4,7.4-26.9,14.6-38.9c7.7-12.8,15.8-25.3,13.7-41.5c-1.2-9.4-5.1-12-12.6-6.3c-16.8,12.8-31,28.1-41.6,46.5
				c-7.2,12.5-14.3,25.1-21.3,37.8c-10.3,18.9-12,39.5-11,60.5c0.2,3.8,3,4.2,6,4.1C374.4,800.6,381.2,800.6,387.9,800.5z"/>
			<path class="st1" d="M890.2,209.3c0.1,7.7,0.1,15.4,0.3,23.1c0.3,8.7,4,12,12.5,12.3c18.3,0.8,35.6-2.3,51.3-12.4
				c5.5-3.5,10.1-8.1,15.7-11.5c3.1-1.9,4.9-5.5,5.8-9.3c1-4.8,2.2-9.5,3.2-14.3c0.7-3.5,0.5-6.9-1.7-10c-1-1.5-2-3.2-2.7-4.9
				c-4.7-12-13.1-15.9-26.1-16c-12.4-0.1-24.5,0.7-36.5,3.1c-2,0.4-4.1,0.5-6.2,0.4c-9-0.5-15.6,5.2-15.8,14.2
				C889.8,192.5,890.1,200.9,890.2,209.3L890.2,209.3z"/>
			<path class="st1" d="M450.4,433.8c1,9.8-1.1,19.9,2.4,29.7c1.3,3.5,3.2,5.7,7,5.6c13.6-0.6,27.5,0.2,40.6-4.6
				c11.7-4.3,21.4-12.2,30.9-19.8c8.9-7.1,10.1-27.5,4.1-37.6c-1.7-2.8-3.5-5.5-5-8.4c-2.6-5.2-6.8-7.2-12.4-7.5
				c-19.3-0.8-38.4,1.3-57.5,3.7c-5.8,0.7-7.9,5.2-9.2,10.1C449.1,414.5,451,424.1,450.4,433.8z"/>
			<path class="st4" d="M930.3,150.3c12.4,2.5,24.9-5.4,38.6-4.9c5.5,0.2,11.4-9.5,11.1-16.8c-0.8-16.3-1.9-32.6-3.1-48.9
				c-0.3-4.4-2.6-7.8-7.4-7.6c-8.4,0.3-16.7,1.2-25,1.7c-11.6,0.7-21.2,6.4-30.6,12.4c-1.8,1.1-3.3,2.7-5.2,3.5
				c-16,6.5-16.5,21.5-18.2,35c-1.3,10.6,14.5,25.1,26.1,25.7C920.5,150.6,924.7,150.3,930.3,150.3z"/>
			<path class="st4" d="M546.2,321.2c13.5,2.8,25.8-4.7,39.1-4.6c5,0.1,11.3-9.2,10.7-15.6c-1.5-16.3-1.1-32.6-1.8-48.9
				c-0.2-5.1-3.5-8.5-8.5-8.6c-7.4-0.1-14.8,0.6-22.3,1.1c-18.9,1.2-33,13-47.8,22.8c-8.2,5.4-9,28-5.4,36.7
				C517.4,321.7,530.6,323.2,546.2,321.2z"/>
			<path class="st0" d="M134.6,803.1c7.2-0.1,14.4-0.3,21.6-0.2c4.6,0.1,6.8-1.6,7.1-6.4c0.9-14.4,3.1-28.7-2.4-42.8
				c-1.5-3.7-1-8.3-1.2-12.5c-0.5-8.5-5.2-13.8-13.5-13.9c-16.3-0.1-32.6,0.2-48.9,0.6c-6.6,0.2-10.9,3.3-11.2,10.6
				c-0.9,21.8,2.7,42.2,16.7,59.8c3,3.7,6.6,5.4,11.5,5.1C121.1,803,127.8,803.2,134.6,803.1z"/>
			<path class="st5" d="M990.6,286.9c-0.1-7.2-0.4-14.5-0.2-21.7c0.2-6-2.5-8.3-8-7.3c-11.4,2-22.9,4-34.2,6.5
				c-9.5,2.1-18.7,5.5-28.3,7.4c-8.8,1.8-16,6.4-22.6,11.9c-7.9,6.5-7.1,16.4-7.3,25.3c-0.1,3.5,4.2,5.3,7.8,6
				c19.8,3.6,39.7,4.7,59.7,2.9c8.6-0.8,17.2-1.2,25.8-1.2c5.7,0,7.9-2.4,7.6-8.1C990.6,301.4,990.7,294.1,990.6,286.9z"/>
			<path class="st0" d="M220.2,802.1c10-0.1,20-0.4,30-0.3c5.3,0.1,6.9-2.4,6.7-7.3c-0.9-17.6-4.8-34.1-16.8-47.8
				c-0.3-0.3-0.7-0.7-0.8-1.1c-4.5-14-17.5-14.4-28.6-17.5c-4.2-1.2-8.6-0.5-12.3,3c-2.1,2-5,3.3-7.8,4.5
				c-7.6,3.3-10.6,9.7-10.9,17.2c-0.6,15.1,0.1,30.2,3.3,45c0.9,4,3.3,4.5,6.6,4.5C199.7,802.3,210,802.2,220.2,802.1z"/>
			<path class="st0" d="M41.7,804.4c7.2-0.1,14.4-0.2,21.6-0.2c4.9,0,6.7-1.9,5.1-7c-2-6.9-4-13.8-4.8-21
				c-1.5-12.6-6.2-24.4-11.7-35.6c-2.8-5.8-8.7-11.3-16.7-12c-3.7-0.3-7.3-0.9-10.9-1.6c-4.8-0.9-7.5,2.7-8.5,7.2
				c-4.7,21.4-2.3,43.1-2.4,64.7c0,4.1,2,5.8,6,5.7C26.8,804.5,34.2,804.5,41.7,804.4z"/>
			<path class="st4" d="M819.3,129.6c-0.1-5.6,0.1-11.2-0.3-16.8c-0.4-5.4-2.4-10.2-8.2-11.7c-12.9-3.3-25.9-4.9-39.2-3.6
				c-6.5,0.7-12.6,8.3-13.9,16.4c-1.4,8.4-2.9,16.8-4.5,25.2c-0.8,4.1,0.8,6.9,4.4,8.5c2.9,1.3,6.2,3,9.2,2.8
				c14.9-1,29.4,3.7,44.3,2.6c8.1-0.6,9.1-1.6,8.7-9.6c-0.2-4.6-0.1-9.3-0.2-14L819.3,129.6z"/>
			<path class="st1" d="M435.6,300.9c0-3.3,0-6.5-0.1-9.8c-0.4-20-5-17.4-20.1-21.1c-4.9-1.2-10.2-1.1-15.2-1.9
				c-14.4-2.3-21.7,1.9-25.6,15.5c-2.7,9.4-3.4,19.3-4.1,29c-0.4,5.2,3.4,7.6,7.8,8.2c10.3,1.6,20.8,2.3,31.2,2.3
				c6.7,0,13.5-0.1,20.2-0.1c5.1,0,7-2.5,6.7-7.5c-0.3-4.9-0.2-9.8-0.2-14.7L435.6,300.9z"/>
			<path class="st5" d="M233.1,616.3c-0.2-12.3-5.3-20.6-19.6-21.9c-7.6-0.7-15.2-2-22.8-3.3c-5.3-0.9-7.9,0.6-9.4,6.2
				c-3.2,11.9-1.4,24.1-3.2,36.1c-0.8,5.3-0.9,10.7-1,16c-0.1,6.9,2.4,8.5,9,7.5c10.8-1.6,21.8,0,32.7-1.8
				c6.6-1.1,9.5-3.6,10.2-10.6C230.1,635.2,233.3,626,233.1,616.3z"/>
			<path class="st5" d="M731,380.1c3.8,7.8,1.2,17.9,2.8,27.6c0.6,3.3,2.3,5.5,5.8,6.4c11.7,2.8,23.6,4.1,35.7,4.1
				c10.3,0,15.6-6.9,18.4-17c1.7-6,1.8-12.4,3.7-18.6c2.3-7.5-0.3-9.9-8.7-11.6c-17-3.4-34.3-1-51.4-2.4
				C730.2,367.9,731.1,374,731,380.1z"/>
			<path class="st3" d="M75.8,70.8c12.3,1.4,15.4-9.8,21.7-16.3c3-3.1,4.5-7.6,4.8-12.2c0.1-1.6,0.2-3.3-0.3-4.8
				c-1-3.6-12.6-12.9-16.4-12.5C70.3,26.6,56,30.3,45.1,42.5c-4.6,5.2-2.5,11.5-3.6,17.3c-0.3,1.6,1.8,2.5,3.4,3.1
				C54.9,66.9,65,70.1,75.8,70.8z"/>
			<path class="st3" d="M819.2,729.7c-1.9,5.3,0.8,8.5,5.6,9.9c8.4,2.6,16.9,5.4,25.7,6.3c7.2,0.7,13.7-0.3,17.5-8.2
				c2.4-4.9,7.9-7.7,9.9-13.4c4.5-13.3-4.9-25.6-18.8-23.6c-13.4,1.9-26.3,4.9-35.7,16.1C820.1,720.6,818.5,724.5,819.2,729.7z"/>
			<path class="st3" d="M495.6,712.5c-1.9,6.6,2.5,8.7,7.9,10.4c9.3,2.9,18.5,6.3,28.5,5.7c2.6-0.1,5.4-0.1,7.2-2.1
				c7-7.9,15.5-15,16.5-26.7c0.1-1.6,0.5-3.2-0.2-4.8c-1.9-4.6-13.8-12.4-18.9-11.8c-14,1.5-27,5.7-37,16.3
				C496.2,703.1,493.8,707,495.6,712.5z"/>
			<path class="st3" d="M80.9,477.4c6,0.6,10.7-2.2,14.8-8c4.6-6.4,10.5-11.8,11.2-20.4c0.3-4.2-1.2-6.3-4.1-9.3
				c-13.3-13.5-26-6.3-39.1-0.2c-4,1.9-7.9,3.5-11.4,6.5c-6.5,5.6-5.6,12.8-6,19.9c-0.1,2.7,2.3,3.9,4.4,4.9
				C54.6,472.6,75.5,477.3,80.9,477.4z"/>
			<path class="st3" d="M247.2,69c1.7-0.3,3.8-0.4,5.8-1.1c7.9-2.9,19.2-19.4,19.4-28.2c0.1-6.5-9.8-16.8-16.3-16.7
				c-12.4,0.1-23.5,5.2-34.2,10.7c-6.4,3.3-11.2,16.7-9.5,23.3c0.7,2.9,3.1,4.1,5.4,5C227.1,65.7,236.8,68.1,247.2,69z"/>
			<path class="st3" d="M854,546.1c1.9,0.2,3.9-0.1,5.2-1.5c7.5-8.3,17.2-15.3,17.7-28c0.1-1.2,0.2-2.4-0.1-3.5
				c-0.9-3.8-12.1-13.3-16.1-12.8c-14.9,1.6-28.9,5.3-40.1,16.6c-7.8,8-5.9,22.1,6.7,24.6C836.2,543.3,844.8,546.5,854,546.1z"/>
			<path class="st3" d="M44.6,260.8c-2.1,7.1,2.3,9.4,7.9,11.3c8.2,2.7,16.6,4.6,25.2,5c12.2,0.6,29.3-19.9,26.9-31.9
				c-1-5.1-13.3-13.7-18.5-13.2c-11,1-21.6,4.2-30.8,10.1C49.2,246.1,42.5,251.3,44.6,260.8z"/>
			<path class="st3" d="M254.8,475.6c3.3,0.5,7.3-1.9,10.4-7.3c3.2-5.5,9.2-9.1,10.9-15.9c3.2-12.2-6.3-23.8-18.8-22.2
				c-13.3,1.6-25.7,5.5-35.6,15.4c-5,5-4.8,11.3-4.9,17.5c0,3.4,2.9,4.9,5.5,5.7C232.1,471.9,241.8,475.2,254.8,475.6z"/>
			<path class="st3" d="M704.7,727c7.6,0.5,10.9-10.5,17.1-17.4c2.8-3.1,3.4-7.6,4.3-11.7c0.4-1.6,0.5-3.2-0.2-4.8
				c-2.5-6-14.7-12.7-21.2-11.6c-12.9,2.2-25.3,5.5-34.7,15.7c-5.1,5.5-4,12.1-3.4,18.5c0.2,2.3,2.4,3.5,4.3,4.2
				C680.4,723.5,690,726.3,704.7,727z"/>
			<path class="st3" d="M215.3,259c-2.6,6,1.4,8.9,6.3,10.7c9,3.3,18.3,5,27.9,5.8c7.6,0.6,11-4.4,15.3-9.1
				c5.2-5.6,9.6-11.4,9.9-19.4c0.3-7.8-10.5-17.6-18.3-16.9c-11.1,1-21.8,4.7-31.2,10.8C219.4,244.5,213.6,249.9,215.3,259z"/>
			<path class="st2" d="M273.8,142.7c14.9-0.4,21.3-6.4,26.6-22.3c3.4-10.2,2.5-12.2-7.2-16.7c-19.1-8.7-33.3-4.8-45.6,12.6
				c-3.8,5.3-3.5,11.9,2.5,16.1C257.8,137.8,266.8,141.3,273.8,142.7z"/>
			<path class="st3" d="M482.3,57.6c14.4,1.1,16.9-11.8,21.4-21.8c4-9.1,2.2-12.3-6.9-16.2c-4.5-1.9-9.2-3.2-13.6-5.4
				c-5-2.5-9.4-1.4-13.4,1.7c-5.6,4.5-12.1,7.8-16.8,13.5c-6.2,7.5-5.2,15.9,3.3,20.6C464,54.1,471.9,58.4,482.3,57.6z"/>
			<path class="st3" d="M650.8,55.7c12.6-0.5,27.1-18.1,25.1-30.6c-0.4-2.9-2.3-4.5-4.6-5.8c-6.2-3.3-12.6-5.9-19.6-7.3
				c-4.6-0.9-9,0.2-12.6,2.7c-5.2,3.5-10.2,7.4-14.8,11.5c-7.8,7-6,17.8,3.4,22.4C640.1,54.8,644,56,650.8,55.7z"/>
			<path class="st2" d="M104.9,144.5c11.3,0,17.1-3.8,21.2-13.7c1.9-4.5,4.2-8.8,5.3-13.6c1-4.4-0.4-7.5-4.1-9.3
				c-5.2-2.5-10.7-4.6-16.1-6.7c-11.4-4.5-18.1,4.5-26.2,9.2c-2.3,1.4-4.2,3.7-6.1,5.7c-6.5,7.3-4.4,16.6,4.5,20.7
				c5.9,2.7,11.6,5.9,18.1,7.2C102.8,144.2,104.2,144.4,104.9,144.5z"/>
			<path class="st3" d="M275.7,548.7c14.4,0.2,22.2-3,25.6-13.4c1.5-4.5,4.7-8.3,5.3-13.5c0.6-4.5-0.7-7.3-4.3-9.3
				c-5.7-3.2-11.7-5.5-18.1-7.3c-5.9-1.6-10.7-0.3-15.4,3.7c-5,4.1-10.7,7.3-14.9,12.4c-5.8,6.9-5.9,14,1.7,18.5
				C263.1,544.4,271.2,548.4,275.7,548.7z"/>
			<path class="st3" d="M880.3,619.4c13.7-0.4,27.8-16.5,26.4-29.8c-0.3-3.1-2.3-5-4.8-6.4c-6.5-3.7-13.6-6.2-20.9-7.6
				c-3.1-0.6-6.2-0.2-8.7,1.6c-6.8,4.6-14.2,8.5-19.2,15.5c-4.5,6.4-5.1,12.4,1,16.5C862,614.5,870.2,620.3,880.3,619.4z"/>
			<path class="st3" d="M109.2,550.9c14.5-0.3,28.9-17.1,27.1-30.4c-0.4-2.7-1.9-4.9-4.4-6c-5.3-2.3-10.7-4.6-16.1-6.7
				c-11.2-4.5-19,3-26,9.2c-15.4,13.7-13.8,20.9,4.9,29.6C99.7,548.8,104.6,550.7,109.2,550.9z"/>
			<path class="st3" d="M277.9,348.8c14-0.1,28.2-15.9,26.6-29.9c-0.1-1.1-0.6-2.2-1.2-3.2c-6.8-9.9-28.9-13-38.2-5.4
				c-4.3,3.5-9,6.6-12.9,10.6c-6.9,7-5.2,17,3.1,21.8C257.8,344.1,275.3,348.9,277.9,348.8z"/>
			<path class="st3" d="M105.4,350.9c16.1-0.4,30.1-16.2,28.7-30c-0.2-2.3-1.6-3.8-3.3-5c-7.1-5.3-15.2-8.1-23.9-8.7
				c-8.6-0.7-27.8,14.6-29.4,23c-0.9,5.1,1.6,9.7,5.4,12.1C90.3,347,98.6,350,105.4,350.9z"/>
			<path class="st3" d="M810.7,685.6c2.3-0.7,4.7-0.5,6.6,0.9c5.4,3.9,9,1.1,12.5-3c8-9.5,8.5-22.8,2-33.7
				c-3.2-5.3-5.7-10.9-12.6-11.7c-4.4-0.5-9.8-4-13.3,0c-5.7,6.6-13.2,12-15.5,21.1c-0.2,0.9-0.2,2.5,0.2,2.7
				c6.5,3,3.4,9.1,4.6,13.7C796.8,682.3,802.6,686.1,810.7,685.6z"/>
			<path class="st3" d="M834.4,463.7c0.1-13.5-13.8-27.4-26.3-27.2c-2.6,0-4.4,1.3-6,3.1c-3.5,4.1-7.2,8-10.3,12.3
				c-3,4.2-7.2,8.8-0.1,13.5c1.7,1.1,0.7,3.5,0.7,5.3c0.1,9.6,4.8,14.7,14.4,14.9c3.3,0.1,6.6-0.1,9.6,1.4c3.7,1.9,6.5,0.6,9.4-2
				C832.5,479.2,833.5,471.1,834.4,463.7z"/>
			<path class="st3" d="M61.7,194.6c-3.3-16.2-9.2-25.5-26.2-26.3c-1.1-0.1-2.7-0.1-3.3,0.5c-5.8,6.6-12.5,12.5-16.3,20.7
				c-0.5,1.1-0.6,3.5,0,3.9c5,3.2,3.5,8.3,4.2,12.9c1.1,6.9,6,10.7,13.3,10.8c4,0.1,7.8,0.2,11.5,2.2c3.1,1.7,5.6,0.6,8-1.9
				C59.1,210.9,61.7,203.2,61.7,194.6z"/>
			<path class="st3" d="M234.4,393.8c-1.2-11.4-8.6-27.1-23.8-27.4c-1.2,0-2.3-0.3-3.5-0.1c-5,0.8-19.2,18.6-19,23.6
				c0.1,1.5,0.3,3.1,1.6,3.7c3.4,1.7,3.1,4.5,3.2,7.7c0.1,9.2,5.1,14,14.4,14.2c1.6,0,3.3,0,4.9,0c4.3,0.1,8.4,4.3,13,0
				c5.5-5.1,8.1-11.2,8.9-18.4C234.3,395.9,234.3,394.8,234.4,393.8z"/>
			<path class="st3" d="M683.1,646.1c0-15.8-12.1-28.4-25.7-28.6c-1.7,0-3.8-0.3-4.6,1.1c-3.7,6-10.3,9.4-13.4,15.9
				c-2.1,4.3-5,8.3,0.9,12c1.6,1,0.7,3,0.7,4.6c0,9.7,5.5,15.2,15.1,15.3c1.8,0,3.6-0.5,5.5,0.1c10.3,3.3,16.3,0,19.4-10.6
				C682.2,652.1,682.7,648.1,683.1,646.1z"/>
			<path class="st3" d="M513.3,645.1c0-11.8-15.4-26.5-26.8-25.8c-0.5,0-0.9,0.1-1.4,0.2c-5,1.1-18.9,19-18.7,24
				c0,0.2-0.1,0.6,0,0.7c7.4,3.9,3.1,12,6.4,17.4c1.5,2.5,3.4,4.8,6.2,5.3c6.5,1.2,13.2,1,19.5,3.9c2.4,1.1,5-1.6,6.9-3.9
				C510.2,661,513.3,652.6,513.3,645.1z"/>
			<path class="st3" d="M64,396.6c0.7-14.5-13.9-29.1-26.6-28.4c-1.5,0.1-3.6,0.6-4.4,1.6c-4.8,6-10.5,11.3-14.2,18.1
				c-0.8,1.5-1.8,3.7-0.7,4.6c5.5,4.4,3.3,11.1,5.3,16.5c1.1,2.9,3,5.3,5.9,6.6c6.7,3.1,14.2,2.9,21,3.5c6,0.6,9.5-6.8,11.6-12.5
				C63.3,402.9,63.6,398.8,64,396.6z"/>
			<path class="st3" d="M204.9,548.7c14.1-0.1,17.8-3.1,20.2-14.1c0.9-4.1,1.1-8.5,2.7-12.3c2-4.9-0.1-7.7-3.6-10
				c-7.4-4.9-16.2-6.2-24.5-7.5c-8.3-1.3-21,13.8-20.9,23c0,1.4,0.4,2.8,0.3,4.2c-0.8,11.6-0.8,11.7,10.8,14.2
				C195.7,547.5,201.8,548.2,204.9,548.7z"/>
			<path class="st3" d="M557.1,798.7c18.7-0.2,20.1-1.3,26.5-18.2c3.5-9.2,1.9-13.1-7.2-16.9c-0.4-0.2-0.9-0.4-1.3-0.5
				c-19.4-7.8-29.8-4.9-42.9,11.6c-6.2,7.9-4.1,16.1,4.9,20.5C544.1,798.7,551.4,799.2,557.1,798.7z"/>
			<path class="st3" d="M573,55.3c15.6,0.2,18.7-2.3,21.6-16.3c0.4-2.1,0.7-4.1,1.1-6.2c2.4-11.8,0.7-14.6-11.4-17.4
				c-7.4-1.7-14.5-5.3-22.6-0.9c-7.9,4.3-12.3,10.4-13.8,18.8c-0.7,3.8,0,7.8-0.7,11.8c-0.5,3.2,1.4,5.1,4.6,6
				C559.2,53.3,566.5,55.9,573,55.3z"/>
			<path class="st3" d="M232.2,193c-3.3-14.8-8.7-25.9-25.3-26.9c-1.7-0.1-3.5-0.4-4.6,0.9c-5.4,6.4-11.9,11.8-15.7,19.4
				c-0.8,1.7-1.6,4.3-0.1,5.3c5.4,3.4,3.8,8.9,4.7,13.7c1.3,6.4,6,9.2,12,9.6c4.1,0.3,8.2,0.3,12.2,2.1c4.4,2,7.5-1.4,10.1-4.3
				C230.7,207.2,231.8,200,232.2,193z"/>
			<path class="st2" d="M174.3,122.5c0.1,0.7,0.2,1.4,0.2,2.1c0.2,3.8-3.7,8.1,0.2,11.1c2.8,2.1,6.8,2.9,10.4,3.6
				c8.1,1.7,16.2,3.8,24.8,1.7c4.1-1,6.7-3.1,8.4-6.6c3.6-7.2,3.5-15.4,5.3-23.1c0.3-1.2-1-3.2-2.1-4.2c-7.8-6.8-18-8.2-27.4-9
				C184.9,97.4,173.9,112.7,174.3,122.5z"/>
			<path class="st3" d="M730.2,796.4c12,3.7,18-3.6,22.5-14.9c4.9-12.4,3.8-16.5-8.7-21.2c-16.6-6.3-31.8-1.7-41.9,12.6
				c-4.9,7-2.7,15.1,4.6,19.6C713.6,796.9,721,797.2,730.2,796.4z"/>
			<path class="st3" d="M805.4,619c13.8-0.1,17.4-3,19.7-15.3c0.6-3,1.1-6,1.7-8.9c1.7-9.6,0.3-12.1-8.9-14.8
				c-5.1-1.5-10.3-2.9-15.5-4c-10.5-2.1-24.2,11.2-23.8,23c0,1.2,0.4,2.3,0.4,3.5c-0.5,11.3-0.5,11.4,10.7,14.2
				c3.4,0.9,6.8,1.5,10.2,2C802.1,619.1,804.4,619,805.4,619z"/>
			<path class="st3" d="M403.7,57.2c14.6,0.1,18.6-3.3,20.9-17c0.1-0.7,0.2-1.4,0.3-2.1c2.9-16.2,1.7-17.9-14.6-21.6
				c-16.2-3.7-22.7-1.3-30.4,11.4c-3.9,6.5-1.3,14.2-3.7,21c-0.6,1.6,2.1,2.9,3.9,3.4C388.2,54.6,396,58,403.7,57.2z"/>
			<path class="st3" d="M203,348.4c15.1,0,18.2-2.7,20.5-16c0.6-3.7,0.7-7.5,1.9-11c1.7-4.9-0.4-8.2-4.2-9.7
				c-9.7-3.8-19.6-8.8-30.3-3.8c-7.5,3.5-12.4,9.6-13.9,17.8c-0.8,4.1-0.7,8.3-1.1,12.4c-0.4,3.3,0.8,5.4,4.2,6.1
				C188.2,345.8,196,349.2,203,348.4z"/>
			<path class="st3" d="M482.6,799.4c18.8-0.1,18.8-0.1,22.4-18.5c2.6-13.4,0.9-16.5-12.5-19.4c-6.9-1.5-13.5-4.7-21.2-0.6
				c-7.5,4-14.2,12.6-13.9,21.2c0,0.9,0.1,1.9,0.1,2.8c0,3.5-4.3,7.2-0.5,10.4c3.6,3,8.4,3.8,13.1,4.1
				C474.3,799.7,478.5,799.4,482.6,799.4z"/>
			<path class="st3" d="M653,797.5c18.9-0.2,19.4-0.6,22.5-19.2c2.3-13.5,0.9-15.4-12.5-18.6c-4.1-1-8.1-2.3-12.1-3.1
				c-5.6-1.1-10.6,2.5-14.6,5.8c-5.2,4.3-8.6,10.3-8.3,17.7c0,0.9,0.2,1.9,0.2,2.8c-0.5,11.2,2.3,14.2,13.7,14.7
				C645.5,797.7,649.3,797.5,653,797.5z"/>
			<path class="st3" d="M994.3,594.7c-0.2-15.7-0.3-15.1-15.3-19.1c-8.3-2.3-15.2-1.2-21.1,4.2c-5.5,5-10,11.2-8.9,19.6
				c0.2,1.6-0.2,3.3-0.6,4.8c-1.3,4.5,0.5,7,4.8,8.5c8.7,3,17.4,4.9,26.7,4.4c10.1-0.5,14.3-4.6,14.4-14.7
				C994.4,599.8,994.3,597.2,994.3,594.7z"/>
			<path class="st3" d="M948.3,532.2c-0.2-10.9-15-20.9-26.5-18c-12.8,3.3-22.9,15-24.5,28.1c-0.4,2.9,1.1,4.3,3.5,5.3
				c7.4,3.2,14.8,6.5,22.3,9.7c2.1,0.9,4.4,1.5,6.8,0.7C936.2,556,948.4,539.1,948.3,532.2z"/>
			<path class="st3" d="M155.6,445.1c-10,1-23,8-24.5,19.3c-0.6,4.3-6.1,7.7-3.3,12.2c2.4,3.9,7.8,3.7,11.6,5.9
				c0.8,0.5,1.7,0.8,2.5,1.3c6,3.5,12.4,8.8,19.2,4.5c8.8-5.5,15.3-13.9,16.7-24.7C179,454.3,167.3,445,155.6,445.1z"/>
			<path class="st3" d="M325.3,288c7.4-0.4,10.1-7,14.1-11.5c8.5-9.5,9-15.5,3.4-24.2c-4.8-7.4-14.1-10.7-24.1-7.9
				c-9.9,2.8-17.4,8.3-19.4,19.2c0,0.2-0.1,0.5-0.2,0.7c-0.5,3.9-6.6,7.2-2.8,11.2c2.6,2.8,7.5,3.4,11.2,5.2
				c3.6,1.7,7.1,3.5,10.6,5.3C320.3,287.2,322.6,288.1,325.3,288z"/>
			<path class="st3" d="M950.6,732.5c0.2-11.7-14.9-22.1-27-18c-9.6,3.2-17.8,7.8-20.5,19.4c-2.9,12.4-3.8,12.2,8.3,17
				c4.7,1.9,9.3,4.2,14,6.2c2.1,0.9,4.5,1.6,6.8,0.9C937.8,756.2,950.5,738.7,950.6,732.5z"/>
			<path class="st3" d="M322.9,81c2.6,0.2,4.7-1.2,6.2-2.9c5.8-6.2,12-12.1,14.7-20.6c1.6-5.2-4.5-16-11.2-18.9
				c-13.6-5.9-32,1.5-35.8,17.3c-0.2,0.7-0.2,1.4-0.5,2c-3.8,10.1-3.7,9.9,6.7,14.8C309.7,75.8,315.9,79.4,322.9,81z"/>
			<path class="st3" d="M327.2,487.7c3.2,0.1,5.6-1,7.2-2.9c5.3-6.4,11.2-12.4,14-20.6c2.1-6-5.4-17-13.4-19.5
				c-14.7-4.6-29.5,3.4-33.6,18.3c-1.2,4.3-7,8.2-3.2,12.6c2.6,2.9,8,3.3,11.9,5.3C315.8,483.6,321.3,486.6,327.2,487.7z"/>
			<path class="st3" d="M154,290c1.8-0.1,2.4,0,2.8-0.2c9.2-4.8,14.3-13,18-22.1c2.9-7.2-1.2-13.2-6-17.4c-6.1-5.4-14-5.7-21.8-3.7
				c-13.9,3.7-17.9,15.4-21.8,27.1c-0.5,1.4-0.4,3.1,1,3.8C135.6,282.3,145.1,287,154,290z"/>
			<path class="st3" d="M605,741.5c9.4-2.6,13.9-9.5,18-16.4c4.7-7.8,4.1-15.5-1.9-22.4c-4.9-5.7-14.9-6.9-23.3-4.7
				c-14,3.7-17.2,15.7-21.6,26.8c-0.6,1.5-0.3,3.7,1.2,4.4C586.6,733.4,596,737.5,605,741.5z"/>
			<path class="st3" d="M776.6,694.5c-11.3,0-22,7.3-25.6,16.4c-0.1,0.2-0.2,0.4-0.2,0.7c-5.1,14.1-5.1,14.1,8.7,20.7
				c0.8,0.4,1.6,0.9,2.5,1.2c6.1,2.2,12.5,8.8,18.6,4.4c8-5.7,14.3-14.1,16.7-24.2c1.2-5.1-6.2-15.3-12.1-17.3
				C781.9,695.3,778.4,694.9,776.6,694.5z"/>
			<path class="st3" d="M746.9,658.3c11.6-0.2,22.5-13.1,21-24.8c-0.6-4.9-4-7.1-8-8.7c-8.1-3.3-16.7-3.8-25.2-5.1
				c-1.7-0.2-3.7-0.3-4.5,1.1c-4.4,6.9-11.9,11.2-15.5,18.6c-2.4,4.8-2,9,3.3,11.8C724,654.5,739.8,658.5,746.9,658.3z"/>
			<path class="st3" d="M291.1,207.1c15.1-0.1,25.9-10.9,25.8-22.4c0-6-4-9.1-9-11.2c-7.6-3.2-15.7-4.1-23.8-4.6
				c-1.2-0.1-2.3,0-3.4,0.3c-4.8,1.4-18.1,18.2-18.4,23.1c-0.2,3.5,0.5,6.6,4.3,7.9C275.8,203.4,284.9,207.1,291.1,207.1z"/>
			<path class="st3" d="M151.3,38.5c-9.9,0.7-21.5,7.4-24.6,17.6c-4,13.5-4.2,13.4,8.7,19.9c0.6,0.3,1.2,0.7,1.8,1
				c6.1,3.4,13.1,8.6,19.4,4.4c8-5.3,14.7-13.2,16.4-23.4C174.6,48.2,163.5,38.5,151.3,38.5z"/>
			<path class="st3" d="M580.7,660.5c6.8,0,18.6-14.2,16.7-24.4c-0.9-4.7-3.8-7.9-8.4-9.5c-8-2.8-16.3-3.7-24.5-5
				c-0.9-0.1-1.9-0.1-2.8,0.1c-3.1,0.8-18.4,19.1-18.9,22.4c-0.5,3.9,0.6,6.8,4.4,8.5C556.8,657.1,566.7,660.2,580.7,660.5z"/>
			<path class="st3" d="M295.7,406.3c15.1,1.9,19.8-6.6,23.3-20.9c1.3-5-2.1-8.8-6.5-11.2c-8.9-4.8-18.8-4.6-28.4-5.6
				c-1-0.1-2.6,0.4-3.1,1.2c-4.3,6.6-11.5,10.8-14.9,18.1c-3,6.4-1.6,10.2,4.9,12.7C279.1,403.7,287.3,407.4,295.7,406.3z"/>
			<path class="st3" d="M898,477.6c10.9-0.1,22.5-13.4,20.9-24.3c-0.6-4.3-3.5-6.9-7.4-8.6c-8.2-3.7-17-4.5-25.8-5.3
				c-1.9-0.2-4.1-0.2-5.2,1.3c-4.7,6.2-11.5,10.8-15,18c-3.1,6.5-1.9,10.2,4.7,12.6C879.2,474.7,888.4,477.4,898,477.6z"/>
			<path class="st3" d="M124,209.1c12.1-0.1,23.1-11.3,22.4-22.6c-0.4-6-4.3-9.8-9.7-11.6c-7.3-2.4-15-3.3-22.6-3.9
				c-7.7-0.6-23.3,17.8-22,25.4c0.5,2.8,2,4.8,4.6,5.8C105.7,205.5,114.7,209.7,124,209.1z"/>
			<path class="st3" d="M896.1,677.2c14.7,0.6,26.1-11.5,25.1-23.3c-0.3-3.7-2.1-6.5-5.5-8.3c-8.9-4.7-18.7-5.3-28.3-6.7
				c-0.9-0.1-2.1,0-2.6,0.6c-6.7,6.6-13.8,13-18,21.5c-2.2,4.5,0.9,8.3,5.2,9.8C880.7,674,889.4,677.2,896.1,677.2z"/>
			<path class="st3" d="M125.1,408.3c13.8,0,21.9-7.4,23.5-20.8c0.5-4.4-1.4-7.6-5-10c-9.4-6.2-20.3-5.8-30.8-6.9
				c-0.6-0.1-1.5,0.2-1.9,0.7c-5.6,7-12.9,12.7-16.5,21.1c-1.7,3.9-0.1,7.3,4,9.1C107.1,405.3,115.9,409,125.1,408.3z"/>
			<path class="st3" d="M992.8,462.2c-0.1-5.8-0.3-11.6-0.1-17.5c0.1-4.2-1-7.4-5.5-8.4c-4.8-1-9.8-4.3-14.2,1
				c-3.4,4.1-7.1,8-10.3,12.3c-3.2,4.4-7.6,9-0.4,14.1c1.7,1.2,0.4,4,0.5,6c0.2,8.6,5.3,13.9,13.9,14c3.5,0,6.9,0.2,10.2,1.6
				c4.1,1.7,6.2,0.3,6.1-4.3c0-0.5,0-0.9,0-1.4C992.9,473.8,992.8,468,992.8,462.2z"/>
			<path class="st3" d="M995.1,662.1c-0.1-5.6-0.2-11.2-0.2-16.8c0-3.8,0.2-7.8-4.6-9c-5.1-1.3-10.6-4-15.1,0.7
				c-4.6,4.9-8.8,10.3-12.6,15.8c-2.1,3-3.7,6.9,1.3,9.4c2.7,1.3,1.5,3.6,1.4,5.5c-0.4,10.7,4.5,15.9,15.4,15.8
				c2.4,0,4.6,0.3,6.8,1.1c6.8,2.6,7.7,2,7.8-5.1C995.2,673.8,995.1,668,995.1,662.1L995.1,662.1z"/>
			<path class="st3" d="M804.7,795.8c6.1-0.1,12.1-0.1,18.2-0.2c2.8,0,5.7,0.1,6.7-3.5c0.9-3.2,0.2-6-2.1-8.4c-2.9-3-6.8-4-10.7-4.7
				c-7.4-1.3-14.4-5-22.5-0.6c-6.1,3.3-9.3,8.2-12.2,13.7c-1.7,3.2,1.1,3.9,3.7,3.9C792.1,795.9,798.4,795.8,804.7,795.8
				L804.7,795.8z"/>
			<path class="st3" d="M881.5,794.9c6.7-0.1,13.4-0.1,20.2-0.2c2.8,0,5.7,0.1,6.9-3.3c1.3-3.6-1.1-5.7-3.4-7.6
				c-13.5-10.7-29.2-10.3-41.9,1.4c-2.7,2.5-8.4,4.9-7.2,8.3c1.4,3.7,7,1.3,10.8,1.5C871.7,795.3,876.6,795,881.5,794.9L881.5,794.9
				z"/>
			<path class="st3" d="M973.9,793.9c5.3-0.1,10.7,0,16-0.2c2.4-0.1,5.8,0.7,6.2-2.8c0.4-3.7,1.8-8-1.9-11.1
				c-12.1-9.9-32-6.5-39.7,6.7c-3.7,6.4-3.1,7.5,4,7.5C963.7,794,968.8,793.9,973.9,793.9z"/>
		</g>
	</g>
</g>
</svg>
